<svg width="135" height="50" viewBox="0 0 135 50" fill="none" xmlns="http://www.w3.org/2000/svg">
<path d="M57.6689 0.231003C53.7932 1.19993 52.0399 4.38353 52.0399 10.4508V12.5732L51.3017 12.4118C50.8865 12.3195 49.2947 12.2503 47.7721 12.2503C45.2806 12.2733 44.7961 12.3425 43.0428 12.9654C39.5362 14.1881 36.7448 16.472 34.5532 19.8171L33.3997 21.5704L32.4539 20.117C31.2542 18.2945 28.5782 15.7107 26.7787 14.6264C21.219 11.3044 13.6983 11.4428 8.25384 14.9725C4.37815 17.4871 1.77128 21.1551 0.410177 26.092C-0.166563 28.0991 -0.120424 34.2817 0.456316 36.358C2.20961 42.7252 7.16957 47.7313 13.2138 49.3C16.8357 50.2228 21.4266 50.1075 25.0485 49.0001C28.9011 47.8236 32.6384 45.1475 33.7919 42.7713L34.3225 41.664L35.5221 43.2097C37.7137 46.0703 40.7358 48.1696 43.9656 49.1386C47.0108 50.0383 51.0018 49.7845 53.6548 48.5157L54.8314 47.9389L56.1233 48.6541C58.5917 49.9921 62.2828 49.6922 64.0823 48.0081C65.9971 46.2318 66.7353 44.2709 66.966 40.3721L67.1044 37.696L67.4966 39.1494C68.8115 44.2709 72.0413 47.5929 77.3012 49.277C79.562 50.0152 85.0295 50.1998 87.8209 49.6461C92.4118 48.7233 96.0567 46.0934 97.9023 42.31C99.6095 38.8726 99.6787 38.342 99.6787 28.2836C99.6787 19.5403 99.6787 19.3788 99.125 17.7178C98.0407 14.4188 95.7568 12.7347 92.2964 12.7347C89.2051 12.7347 87.0596 14.0728 85.86 16.7488C84.9833 18.6867 84.7988 20.5553 84.7988 27.8222C84.7988 35.2276 84.7526 35.5044 83.3915 35.6198C81.9151 35.7351 81.9382 35.7813 81.7767 27.0379C81.6613 19.5633 81.6152 19.1019 81.1076 17.6024C79.8619 13.9574 76.4937 12.0426 72.7334 12.827C70.288 13.3345 68.1887 15.3185 67.4043 17.8792C67.0813 18.8712 67.0583 18.6405 67.0352 13.9805C67.0121 8.37457 66.8276 6.34445 66.0893 4.4066C64.8666 1.13072 61.2216 -0.668712 57.6689 0.231003ZM61.8676 3.6453C62.8827 4.33739 63.4825 5.49087 63.8054 7.2903C63.99 8.32843 64.0361 13.9574 63.99 25.746C63.9208 41.341 63.8747 42.7944 63.5055 43.7403C62.7442 45.632 61.5446 46.5086 59.6529 46.5086C58.2226 46.5086 56.9538 45.9088 56.0079 44.7553L55.2928 43.9018L54.1162 44.7784C50.3559 47.5237 44.9114 47.3391 40.8512 44.317C38.0828 42.2638 35.8682 38.9649 34.9223 35.5044C34.2533 32.9898 34.2533 28.6528 34.9223 26.1382C35.7067 23.2545 36.8601 21.2935 39.121 19.0327C41.9355 16.2182 44.3347 15.134 47.9336 15.134C50.3559 15.134 51.717 15.4569 53.4933 16.4951L54.9929 17.3948L55.1082 12.0426C55.2005 6.34445 55.3389 5.53701 56.4001 4.29125C57.5997 2.86094 60.2758 2.56103 61.8676 3.6453ZM21.8188 15.7107C24.1257 16.3336 25.9713 17.4409 27.9553 19.4018C30.8159 22.2394 32.2232 25.5153 32.2693 29.5294C32.2924 31.8594 31.9233 32.6899 30.5852 33.2205C29.7778 33.5435 28.4397 33.5896 20.896 33.5896C10.953 33.5896 11.6681 33.4051 12.6832 35.5736C13.8828 38.1574 16.9741 39.334 20.5499 38.5957C21.4497 38.4112 23.4567 37.7191 25.0024 37.0501C28.3936 35.6198 29.2241 35.6198 30.6083 37.027C31.5772 37.9959 31.8771 39.1494 31.508 40.5567C31.1389 41.8947 28.9011 44.0632 26.8941 45.0552C24.0796 46.4394 22.0956 46.8547 18.3583 46.8316C15.3131 46.8316 14.8517 46.7855 13.2138 46.2087C8.34612 44.5016 4.63191 40.4875 3.36309 35.5275C2.80942 33.359 2.74021 29.391 3.24774 27.0379C4.28587 22.1471 8.4384 17.3948 12.96 15.9414C15.6361 15.0878 19.1658 14.9955 21.8188 15.7107ZM76.263 16.1029C77.5088 16.7258 78.2239 17.7408 78.5469 19.3096C78.6853 19.9786 78.8007 23.2083 78.8007 26.9917C78.8007 30.5906 78.916 34.0741 79.0314 34.7662C79.562 37.5345 80.7616 38.5496 83.4377 38.5265C85.3986 38.5265 86.5059 37.8806 87.198 36.3811C87.6363 35.3891 87.6825 34.7893 87.8209 27.3609C87.9132 21.6165 88.0285 19.1711 88.2592 18.5944C89.2512 15.9414 91.8119 14.8802 94.2573 16.1029C96.6566 17.3486 96.8642 18.4098 96.7488 29.0449C96.6565 36.2657 96.5873 37.5807 96.2413 38.665C94.8571 42.9559 91.9734 45.6089 87.5902 46.6701C85.537 47.1546 81.0384 47.1546 78.9622 46.647C74.602 45.6089 71.6722 42.8636 70.3341 38.5496C69.965 37.3039 69.9189 36.2427 69.9189 28.2836C69.9189 19.4711 69.9189 19.4018 70.4495 18.2022C71.0954 16.795 71.5338 16.3567 72.7334 15.9183C74.0253 15.48 75.1096 15.5261 76.263 16.1029Z" fill="white"/>
<path d="M47.5412 23.7851C46.2493 24.2465 44.842 25.8152 44.2191 27.4762C43.504 29.368 43.4809 32.4593 44.173 34.2818C45.1419 36.8886 46.9183 38.2036 49.4329 38.2036C51.9475 38.2036 53.9314 36.5887 54.7158 33.8896C55.2464 32.044 55.0849 28.5836 54.3698 26.9687C53.124 24.1312 50.2864 22.8162 47.5412 23.7851Z" fill="white"/>
<path d="M16.2822 22.7238C14.4827 23.2775 12.8679 24.8231 12.268 26.5764L11.922 27.5915H17.6894C24.2412 27.5915 23.9182 27.7299 22.8339 25.5614C21.7035 23.2775 18.7045 21.9856 16.2822 22.7238Z" fill="white"/>
<path d="M118.55 0.138735C115.389 0.784683 113.59 3.13778 113.244 7.10575L113.105 8.67449H111.906C111.237 8.67449 109.991 8.88211 109.137 9.15895C107.13 9.75876 105.585 11.2121 104.985 13.0346C104.477 14.6034 104.593 16.9334 105.285 18.2484C106.254 20.1401 108.284 21.455 110.568 21.7319C113.29 22.0318 113.082 21.8934 113.244 23.5082C113.451 25.6999 114.051 27.2686 115.182 28.5143C116.45 29.9216 117.812 30.4753 119.865 30.4522C123.579 30.4061 125.748 28.2144 126.347 23.9235C126.486 22.9546 126.716 22.101 126.855 22.0087C127.016 21.9164 127.57 21.8242 128.078 21.8242C129.508 21.8242 131.861 21.0167 132.853 20.1862C135.252 18.2022 135.714 14.2573 133.868 11.512C132.83 9.94332 130.684 8.88211 128.331 8.72063L126.601 8.62835L126.37 6.6905C126.07 4.42968 125.24 2.5149 124.179 1.61519C122.679 0.346361 120.465 -0.230379 118.55 0.138735ZM121.756 3.55304C122.933 4.24512 123.394 5.60623 123.51 8.8129L123.625 11.6735H126.209C127.639 11.6735 129.139 11.7889 129.577 11.9273C132.853 13.0346 132.876 17.6255 129.6 18.5944C129.139 18.7328 127.593 18.9174 126.186 18.9866L123.602 19.125L123.51 21.8011C123.371 25.3307 122.91 26.4611 121.341 27.1763C119.426 28.0068 117.673 27.4301 116.75 25.6076C116.381 24.8924 116.289 24.1311 116.22 21.9164L116.127 19.125L113.405 18.9866C110.199 18.8482 108.837 18.3868 108.099 17.1641C107.499 16.149 107.476 14.3496 108.099 13.3576C108.861 12.0888 109.691 11.812 113.128 11.7197L116.174 11.6274V9.15895C116.174 5.37553 116.866 3.69145 118.619 3.13778C119.496 2.86095 120.926 3.0455 121.756 3.55304Z" fill="white"/>
</svg>
